# 3ds Max Wavefront OBJ Exporter v0.97b - (c)2007 guruware
# File Created: 30.01.2020 02:14:44

mtllib Hex.mtl

#
# object hex
#

v  5.7733 -0.0000 9.9996
v  11.5466 -0.0000 -0.0000
v  5.7733 -0.0000 -9.9996
v  -5.7733 -0.0000 -9.9996
v  -11.5466 -0.0000 0.0000
v  -5.7733 -0.0000 9.9996
# 6 vertices

vn 0.0000 1.0000 -0.0000
# 1 vertex normals

vt 0.7500 0.0670 0.0000
vt 1.0000 0.5000 0.0000
vt 0.7500 0.9330 0.0000
vt 0.2500 0.9330 0.0000
vt 0.0000 0.5000 0.0000
vt 0.2500 0.0670 0.0000
# 6 texture coords

o hex
g hex
usemtl hex
s 1
f 1/1/1 2/2/1 3/3/1 4/4/1 5/5/1 6/6/1 
# 1 polygons

